<svg width="670" height="1112" viewBox="0 0 670 1112" fill="none" xmlns="http://www.w3.org/2000/svg">
<rect width="670" height="1112" rx="28" fill="black"/>
<path d="M182.199 723L191.506 666.273H200.37L191.063 723H182.199ZM156.799 708.929L158.267 700.065H202.586L201.118 708.929H156.799ZM162.256 723L171.563 666.273H180.426L171.12 723H162.256ZM160.04 689.207L161.536 680.344H205.854L204.358 689.207H160.04ZM233.491 724.246C228.726 724.228 224.627 723.055 221.192 720.729C217.776 718.402 215.145 715.032 213.298 710.619C211.47 706.205 210.565 700.896 210.584 694.692C210.584 688.506 211.498 683.234 213.326 678.876C215.172 674.518 217.804 671.203 221.22 668.932C224.655 666.642 228.745 665.497 233.491 665.497C238.236 665.497 242.317 666.642 245.733 668.932C249.168 671.222 251.809 674.545 253.655 678.903C255.502 683.243 256.416 688.506 256.398 694.692C256.398 700.915 255.474 706.233 253.628 710.646C251.8 715.06 249.177 718.43 245.761 720.756C242.345 723.083 238.255 724.246 233.491 724.246ZM233.491 714.303C236.741 714.303 239.335 712.668 241.274 709.4C243.213 706.131 244.173 701.229 244.155 694.692C244.155 690.389 243.711 686.807 242.825 683.945C241.957 681.082 240.72 678.931 239.113 677.491C237.525 676.05 235.651 675.33 233.491 675.33C230.259 675.33 227.674 676.946 225.735 680.178C223.796 683.409 222.817 688.247 222.799 694.692C222.799 699.05 223.233 702.688 224.101 705.605C224.987 708.504 226.233 710.683 227.84 712.142C229.447 713.582 231.33 714.303 233.491 714.303ZM287.192 724.246C282.428 724.228 278.328 723.055 274.893 720.729C271.477 718.402 268.846 715.032 266.999 710.619C265.171 706.205 264.266 700.896 264.285 694.692C264.285 688.506 265.199 683.234 267.027 678.876C268.874 674.518 271.505 671.203 274.921 668.932C278.356 666.642 282.446 665.497 287.192 665.497C291.938 665.497 296.018 666.642 299.435 668.932C302.869 671.222 305.51 674.545 307.357 678.903C309.203 683.243 310.117 688.506 310.099 694.692C310.099 700.915 309.175 706.233 307.329 710.646C305.501 715.06 302.879 718.43 299.462 720.756C296.046 723.083 291.956 724.246 287.192 724.246ZM287.192 714.303C290.442 714.303 293.036 712.668 294.975 709.4C296.914 706.131 297.874 701.229 297.856 694.692C297.856 690.389 297.413 686.807 296.526 683.945C295.658 681.082 294.421 678.931 292.815 677.491C291.227 676.05 289.352 675.33 287.192 675.33C283.96 675.33 281.375 676.946 279.436 680.178C277.497 683.409 276.518 688.247 276.5 694.692C276.5 699.05 276.934 702.688 277.802 705.605C278.688 708.504 279.935 710.683 281.541 712.142C283.148 713.582 285.031 714.303 287.192 714.303ZM318.983 723V666.273H341.696C345.869 666.273 349.35 666.891 352.139 668.129C354.927 669.366 357.023 671.083 358.426 673.281C359.83 675.46 360.531 677.971 360.531 680.815C360.531 683.031 360.088 684.979 359.202 686.659C358.316 688.321 357.097 689.687 355.546 690.759C354.013 691.811 352.259 692.559 350.283 693.002V693.556C352.443 693.648 354.465 694.258 356.349 695.384C358.251 696.511 359.793 698.089 360.975 700.121C362.156 702.134 362.747 704.534 362.747 707.322C362.747 710.332 361.999 713.019 360.504 715.383C359.026 717.728 356.838 719.584 353.939 720.95C351.04 722.317 347.467 723 343.22 723H318.983ZM330.977 713.195H340.754C344.097 713.195 346.534 712.558 348.067 711.283C349.6 709.991 350.366 708.273 350.366 706.131C350.366 704.562 349.987 703.177 349.23 701.977C348.473 700.776 347.393 699.835 345.99 699.151C344.605 698.468 342.952 698.126 341.031 698.126H330.977V713.195ZM330.977 690.011H339.868C341.512 690.011 342.97 689.724 344.244 689.152C345.537 688.561 346.553 687.73 347.291 686.659C348.048 685.588 348.427 684.305 348.427 682.809C348.427 680.759 347.698 679.107 346.239 677.851C344.798 676.595 342.749 675.967 340.09 675.967H330.977V690.011ZM370.551 723V666.273H408.111V676.161H382.545V689.678H405.618V699.567H382.545V723H370.551ZM418.872 723H406.02L425.603 666.273H441.059L460.614 723H447.762L433.553 679.236H433.109L418.872 723ZM418.069 700.702H448.427V710.065H418.069V700.702ZM488.881 723.776C485.963 723.757 483.147 723.268 480.433 722.308C477.737 721.347 475.318 719.787 473.176 717.626C471.034 715.466 469.335 712.604 468.079 709.04C466.842 705.476 466.223 701.099 466.223 695.911C466.242 691.146 466.787 686.89 467.858 683.141C468.947 679.374 470.498 676.18 472.511 673.558C474.542 670.935 476.971 668.941 479.796 667.575C482.621 666.19 485.788 665.497 489.297 665.497C493.082 665.497 496.424 666.236 499.324 667.713C502.223 669.172 504.549 671.157 506.304 673.668C508.076 676.18 509.147 678.996 509.517 682.116H497.689C497.228 680.141 496.258 678.589 494.781 677.463C493.304 676.337 491.475 675.773 489.297 675.773C485.603 675.773 482.797 677.38 480.876 680.593C478.974 683.806 478.005 688.173 477.968 693.695H478.355C479.205 692.014 480.35 690.583 481.79 689.401C483.249 688.201 484.902 687.287 486.748 686.659C488.613 686.013 490.58 685.69 492.648 685.69C496.009 685.69 499 686.484 501.623 688.072C504.245 689.641 506.313 691.802 507.827 694.553C509.341 697.305 510.098 700.453 510.098 703.999C510.098 707.839 509.203 711.256 507.412 714.247C505.639 717.239 503.155 719.584 499.961 721.283C496.784 722.963 493.091 723.794 488.881 723.776ZM488.826 714.358C490.672 714.358 492.325 713.915 493.784 713.028C495.243 712.142 496.387 710.942 497.218 709.428C498.049 707.913 498.465 706.214 498.465 704.331C498.465 702.447 498.049 700.758 497.218 699.262C496.406 697.766 495.279 696.575 493.839 695.689C492.399 694.803 490.755 694.359 488.909 694.359C487.524 694.359 486.24 694.618 485.059 695.135C483.895 695.652 482.87 696.372 481.984 697.295C481.116 698.219 480.433 699.29 479.934 700.509C479.436 701.709 479.186 702.992 479.186 704.359C479.186 706.187 479.602 707.858 480.433 709.372C481.282 710.886 482.427 712.096 483.868 713.001C485.326 713.906 486.979 714.358 488.826 714.358Z" fill="#00BFA6"/>
<path d="M182.047 445L191.354 388.273H200.217L190.911 445H182.047ZM156.647 430.929L158.115 422.065H202.433L200.965 430.929H156.647ZM162.104 445L171.411 388.273H180.274L170.967 445H162.104ZM159.888 411.207L161.384 402.344H205.702L204.206 411.207H159.888ZM211.428 445V388.273H248.988V398.161H223.422V411.678H246.495V421.567H223.422V445H211.428ZM277.248 387.497C280.165 387.497 282.972 387.987 285.668 388.965C288.383 389.944 290.802 391.504 292.925 393.646C295.067 395.788 296.757 398.632 297.994 402.178C299.25 405.705 299.887 410.035 299.906 415.168C299.906 419.988 299.361 424.29 298.271 428.076C297.2 431.843 295.658 435.047 293.646 437.688C291.633 440.328 289.205 442.341 286.361 443.726C283.517 445.092 280.341 445.776 276.832 445.776C273.047 445.776 269.705 445.046 266.805 443.587C263.906 442.11 261.57 440.107 259.798 437.577C258.043 435.028 256.982 432.166 256.612 428.99H268.44C268.901 431.058 269.871 432.665 271.348 433.81C272.825 434.936 274.653 435.499 276.832 435.499C280.526 435.499 283.332 433.893 285.253 430.68C287.173 427.448 288.143 423.026 288.161 417.412H287.773C286.924 419.074 285.779 420.505 284.339 421.705C282.898 422.887 281.246 423.801 279.381 424.447C277.534 425.094 275.567 425.417 273.481 425.417C270.138 425.417 267.156 424.632 264.534 423.062C261.912 421.493 259.844 419.332 258.33 416.581C256.815 413.83 256.058 410.69 256.058 407.163C256.04 403.359 256.917 399.971 258.69 396.998C260.462 394.025 262.937 391.698 266.113 390.018C269.308 388.319 273.019 387.479 277.248 387.497ZM277.331 396.915C275.466 396.915 273.804 397.358 272.345 398.244C270.905 399.131 269.76 400.322 268.911 401.817C268.08 403.313 267.673 404.984 267.692 406.831C267.692 408.696 268.098 410.376 268.911 411.872C269.741 413.349 270.868 414.531 272.29 415.418C273.73 416.286 275.374 416.719 277.22 416.719C278.605 416.719 279.888 416.461 281.07 415.944C282.252 415.427 283.277 414.716 284.145 413.811C285.031 412.888 285.724 411.826 286.222 410.626C286.721 409.425 286.97 408.151 286.97 406.803C286.952 405.012 286.527 403.369 285.696 401.873C284.865 400.377 283.72 399.177 282.261 398.272C280.803 397.367 279.159 396.915 277.331 396.915ZM318.325 445H305.473L325.056 388.273H340.512L360.067 445H347.215L333.006 401.236H332.562L318.325 445ZM317.522 422.702H347.88V432.065H317.522V422.702ZM387.725 445.776C383.459 445.776 379.664 445.083 376.341 443.698C373.035 442.295 370.441 440.384 368.557 437.964C366.674 435.545 365.732 432.803 365.732 429.738C365.732 427.374 366.267 425.205 367.338 423.229C368.428 421.234 369.905 419.582 371.77 418.271C373.635 416.941 375.722 416.092 378.03 415.722V415.335C375.002 414.725 372.546 413.257 370.662 410.93C368.779 408.585 367.837 405.862 367.837 402.759C367.837 399.823 368.696 397.21 370.413 394.92C372.13 392.612 374.485 390.803 377.476 389.491C380.486 388.162 383.902 387.497 387.725 387.497C391.547 387.497 394.954 388.162 397.946 389.491C400.956 390.821 403.319 392.64 405.037 394.948C406.754 397.238 407.622 399.842 407.64 402.759C407.622 405.88 406.662 408.604 404.76 410.93C402.858 413.257 400.42 414.725 397.447 415.335V415.722C399.718 416.092 401.777 416.941 403.624 418.271C405.489 419.582 406.966 421.234 408.056 423.229C409.164 425.205 409.727 427.374 409.745 429.738C409.727 432.803 408.776 435.545 406.892 437.964C405.009 440.384 402.405 442.295 399.081 443.698C395.776 445.083 391.99 445.776 387.725 445.776ZM387.725 436.967C389.627 436.967 391.289 436.626 392.711 435.942C394.132 435.241 395.24 434.281 396.034 433.062C396.847 431.825 397.253 430.403 397.253 428.796C397.253 427.153 396.838 425.703 396.007 424.447C395.176 423.173 394.049 422.176 392.627 421.456C391.206 420.717 389.571 420.348 387.725 420.348C385.897 420.348 384.262 420.717 382.822 421.456C381.382 422.176 380.246 423.173 379.415 424.447C378.603 425.703 378.196 427.153 378.196 428.796C378.196 430.403 378.593 431.825 379.387 433.062C380.181 434.281 381.299 435.241 382.739 435.942C384.179 436.626 385.841 436.967 387.725 436.967ZM387.725 411.623C389.313 411.623 390.725 411.3 391.963 410.653C393.2 410.007 394.169 409.112 394.871 407.967C395.573 406.822 395.924 405.501 395.924 404.006C395.924 402.528 395.573 401.236 394.871 400.128C394.169 399.001 393.209 398.124 391.99 397.496C390.772 396.85 389.35 396.527 387.725 396.527C386.118 396.527 384.696 396.85 383.459 397.496C382.222 398.124 381.252 399.001 380.551 400.128C379.868 401.236 379.526 402.528 379.526 404.006C379.526 405.501 379.877 406.822 380.578 407.967C381.28 409.112 382.25 410.007 383.487 410.653C384.724 411.3 386.137 411.623 387.725 411.623ZM418.131 445V436.358L438.324 417.661C440.041 415.999 441.481 414.504 442.645 413.174C443.827 411.844 444.722 410.543 445.331 409.268C445.941 407.976 446.246 406.582 446.246 405.086C446.246 403.424 445.867 401.993 445.11 400.793C444.353 399.574 443.319 398.641 442.008 397.995C440.697 397.33 439.21 396.998 437.548 396.998C435.812 396.998 434.298 397.349 433.006 398.05C431.713 398.752 430.716 399.759 430.014 401.07C429.312 402.381 428.961 403.941 428.961 405.751H417.577C417.577 402.039 418.417 398.817 420.098 396.084C421.778 393.351 424.133 391.237 427.161 389.741C430.189 388.245 433.68 387.497 437.631 387.497C441.694 387.497 445.23 388.217 448.24 389.658C451.268 391.08 453.623 393.055 455.303 395.585C456.983 398.115 457.824 401.014 457.824 404.283C457.824 406.425 457.399 408.539 456.55 410.626C455.719 412.712 454.232 415.03 452.09 417.578C449.948 420.108 446.929 423.146 443.032 426.691L434.751 434.807V435.195H458.572V445H418.131ZM489.033 445.776C486.116 445.757 483.3 445.268 480.585 444.308C477.889 443.347 475.47 441.787 473.328 439.626C471.186 437.466 469.487 434.604 468.232 431.04C466.994 427.476 466.376 423.099 466.376 417.911C466.394 413.146 466.939 408.89 468.01 405.141C469.099 401.374 470.651 398.18 472.663 395.558C474.695 392.935 477.123 390.941 479.948 389.575C482.773 388.19 485.94 387.497 489.449 387.497C493.234 387.497 496.577 388.236 499.476 389.713C502.375 391.172 504.702 393.157 506.456 395.668C508.229 398.18 509.3 400.996 509.669 404.116H497.842C497.38 402.141 496.411 400.589 494.933 399.463C493.456 398.337 491.628 397.773 489.449 397.773C485.756 397.773 482.949 399.38 481.028 402.593C479.126 405.806 478.157 410.173 478.12 415.695H478.508C479.357 414.014 480.502 412.583 481.942 411.401C483.401 410.201 485.054 409.287 486.901 408.659C488.766 408.013 490.732 407.69 492.8 407.69C496.161 407.69 499.153 408.484 501.775 410.072C504.397 411.641 506.465 413.802 507.979 416.553C509.494 419.305 510.251 422.453 510.251 425.999C510.251 429.839 509.355 433.256 507.564 436.247C505.791 439.239 503.308 441.584 500.113 443.283C496.937 444.963 493.244 445.794 489.033 445.776ZM488.978 436.358C490.825 436.358 492.477 435.915 493.936 435.028C495.395 434.142 496.54 432.942 497.371 431.428C498.202 429.913 498.617 428.214 498.617 426.331C498.617 424.447 498.202 422.758 497.371 421.262C496.558 419.766 495.432 418.575 493.991 417.689C492.551 416.803 490.908 416.359 489.061 416.359C487.676 416.359 486.393 416.618 485.211 417.135C484.048 417.652 483.023 418.372 482.136 419.295C481.268 420.219 480.585 421.29 480.087 422.509C479.588 423.709 479.339 424.992 479.339 426.359C479.339 428.187 479.754 429.858 480.585 431.372C481.435 432.886 482.58 434.096 484.02 435.001C485.479 435.906 487.131 436.358 488.978 436.358Z" fill="#F9A826"/>
<path d="M183.913 167L193.22 110.273H202.084L192.777 167H183.913ZM158.513 152.929L159.981 144.065H204.299L202.831 152.929H158.513ZM163.97 167L173.277 110.273H182.14L172.834 167H163.97ZM161.754 133.207L163.25 124.344H207.568L206.072 133.207H161.754ZM235.204 168.246C230.44 168.228 226.341 167.055 222.906 164.729C219.49 162.402 216.859 159.032 215.012 154.619C213.184 150.205 212.279 144.896 212.297 138.692C212.297 132.506 213.212 127.234 215.04 122.876C216.886 118.518 219.518 115.203 222.934 112.932C226.369 110.642 230.459 109.497 235.204 109.497C239.95 109.497 244.031 110.642 247.447 112.932C250.882 115.222 253.523 118.545 255.369 122.903C257.216 127.243 258.13 132.506 258.111 138.692C258.111 144.915 257.188 150.233 255.342 154.646C253.513 159.06 250.891 162.43 247.475 164.756C244.059 167.083 239.969 168.246 235.204 168.246ZM235.204 158.303C238.454 158.303 241.049 156.668 242.988 153.4C244.927 150.131 245.887 145.229 245.869 138.692C245.869 134.389 245.425 130.807 244.539 127.945C243.671 125.082 242.434 122.931 240.827 121.491C239.239 120.05 237.365 119.33 235.204 119.33C231.973 119.33 229.388 120.946 227.449 124.178C225.51 127.409 224.531 132.247 224.513 138.692C224.513 143.05 224.947 146.688 225.815 149.605C226.701 152.504 227.947 154.683 229.554 156.142C231.16 157.582 233.044 158.303 235.204 158.303ZM288.906 168.246C284.141 168.228 280.042 167.055 276.607 164.729C273.191 162.402 270.56 159.032 268.713 154.619C266.885 150.205 265.98 144.896 265.999 138.692C265.999 132.506 266.913 127.234 268.741 122.876C270.587 118.518 273.219 115.203 276.635 112.932C280.07 110.642 284.16 109.497 288.906 109.497C293.651 109.497 297.732 110.642 301.149 112.932C304.583 115.222 307.224 118.545 309.07 122.903C310.917 127.243 311.831 132.506 311.813 138.692C311.813 144.915 310.889 150.233 309.043 154.646C307.215 159.06 304.592 162.43 301.176 164.756C297.76 167.083 293.67 168.246 288.906 168.246ZM288.906 158.303C292.156 158.303 294.75 156.668 296.689 153.4C298.628 150.131 299.588 145.229 299.57 138.692C299.57 134.389 299.127 130.807 298.24 127.945C297.372 125.082 296.135 122.931 294.528 121.491C292.94 120.05 291.066 119.33 288.906 119.33C285.674 119.33 283.089 120.946 281.15 124.178C279.211 127.409 278.232 132.247 278.214 138.692C278.214 143.05 278.648 146.688 279.516 149.605C280.402 152.504 281.649 154.683 283.255 156.142C284.862 157.582 286.745 158.303 288.906 158.303ZM320.697 167V110.273H343.41C347.583 110.273 351.064 110.891 353.853 112.129C356.641 113.366 358.737 115.083 360.14 117.281C361.544 119.46 362.245 121.971 362.245 124.815C362.245 127.031 361.802 128.979 360.916 130.659C360.029 132.321 358.811 133.687 357.26 134.759C355.727 135.811 353.973 136.559 351.997 137.002V137.556C354.157 137.648 356.179 138.258 358.063 139.384C359.965 140.511 361.507 142.089 362.688 144.121C363.87 146.134 364.461 148.534 364.461 151.322C364.461 154.332 363.713 157.019 362.218 159.383C360.74 161.728 358.552 163.584 355.653 164.95C352.754 166.317 349.181 167 344.934 167H320.697ZM332.691 157.195H342.468C345.811 157.195 348.248 156.558 349.781 155.283C351.313 153.991 352.08 152.273 352.08 150.131C352.08 148.562 351.701 147.177 350.944 145.977C350.187 144.776 349.107 143.835 347.703 143.151C346.318 142.468 344.666 142.126 342.745 142.126H332.691V157.195ZM332.691 134.011H341.582C343.225 134.011 344.684 133.724 345.958 133.152C347.251 132.561 348.267 131.73 349.005 130.659C349.762 129.588 350.141 128.305 350.141 126.809C350.141 124.759 349.411 123.107 347.953 121.851C346.512 120.595 344.463 119.967 341.804 119.967H332.691V134.011ZM394.175 168.246C389.411 168.228 385.312 167.055 381.877 164.729C378.461 162.402 375.829 159.032 373.983 154.619C372.155 150.205 371.25 144.896 371.268 138.692C371.268 132.506 372.182 127.234 374.01 122.876C375.857 118.518 378.488 115.203 381.905 112.932C385.339 110.642 389.429 109.497 394.175 109.497C398.921 109.497 403.002 110.642 406.418 112.932C409.853 115.222 412.493 118.545 414.34 122.903C416.187 127.243 417.101 132.506 417.082 138.692C417.082 144.915 416.159 150.233 414.312 154.646C412.484 159.06 409.862 162.43 406.446 164.756C403.03 167.083 398.939 168.246 394.175 168.246ZM394.175 158.303C397.425 158.303 400.02 156.668 401.959 153.4C403.897 150.131 404.858 145.229 404.839 138.692C404.839 134.389 404.396 130.807 403.51 127.945C402.642 125.082 401.405 122.931 399.798 121.491C398.21 120.05 396.336 119.33 394.175 119.33C390.944 119.33 388.358 120.946 386.419 124.178C384.481 127.409 383.502 132.247 383.483 138.692C383.483 143.05 383.917 146.688 384.785 149.605C385.672 152.504 386.918 154.683 388.525 156.142C390.131 157.582 392.015 158.303 394.175 158.303ZM425.967 167V110.273H463.526V120.161H437.96V133.678H461.033V143.567H437.96V167H425.967ZM471.593 167V110.273H509.153V120.161H483.587V133.678H506.66V143.567H483.587V167H471.593Z" fill="#00B0FF"/>
<path d="M185.894 1001L195.2 944.273H204.064L194.757 1001H185.894ZM160.494 986.929L161.962 978.065H206.28L204.812 986.929H160.494ZM165.95 1001L175.257 944.273H184.121L174.814 1001H165.95ZM163.734 967.207L165.23 958.344H209.548L208.053 967.207H163.734ZM215.275 1001V944.273H252.835V954.161H227.269V967.678H250.342V977.567H227.269V1001H215.275ZM281.288 1001.78C277.374 1001.78 273.884 1001.06 270.818 999.615C267.771 998.175 265.352 996.19 263.561 993.66C261.77 991.13 260.837 988.231 260.764 984.962H272.397C272.526 987.16 273.45 988.942 275.167 990.308C276.884 991.675 278.925 992.358 281.288 992.358C283.172 992.358 284.834 991.942 286.274 991.112C287.733 990.262 288.869 989.089 289.681 987.594C290.512 986.08 290.928 984.344 290.928 982.386C290.928 980.392 290.503 978.638 289.653 977.124C288.823 975.609 287.668 974.428 286.191 973.578C284.714 972.729 283.024 972.295 281.122 972.276C279.46 972.276 277.845 972.618 276.275 973.301C274.724 973.984 273.514 974.917 272.646 976.099L261.982 974.188L264.669 944.273H299.348V954.078H274.558L273.09 968.288H273.422C274.419 966.884 275.924 965.721 277.937 964.798C279.95 963.874 282.203 963.413 284.695 963.413C288.112 963.413 291.158 964.216 293.836 965.822C296.514 967.429 298.628 969.636 300.179 972.442C301.73 975.231 302.497 978.444 302.478 982.082C302.497 985.904 301.61 989.302 299.819 992.275C298.046 995.229 295.563 997.556 292.368 999.255C289.192 1000.94 285.499 1001.78 281.288 1001.78ZM333.085 1002.25C328.321 1002.23 324.222 1001.06 320.787 998.729C317.371 996.402 314.739 993.032 312.893 988.619C311.065 984.205 310.16 978.896 310.178 972.692C310.178 966.506 311.092 961.234 312.921 956.876C314.767 952.518 317.399 949.203 320.815 946.932C324.249 944.642 328.34 943.497 333.085 943.497C337.831 943.497 341.912 944.642 345.328 946.932C348.763 949.222 351.403 952.545 353.25 956.903C355.097 961.243 356.011 966.506 355.992 972.692C355.992 978.915 355.069 984.233 353.222 988.646C351.394 993.06 348.772 996.43 345.356 998.756C341.94 1001.08 337.85 1002.25 333.085 1002.25ZM333.085 992.303C336.335 992.303 338.93 990.668 340.869 987.4C342.808 984.131 343.768 979.229 343.749 972.692C343.749 968.389 343.306 964.807 342.42 961.945C341.552 959.082 340.315 956.931 338.708 955.491C337.12 954.05 335.246 953.33 333.085 953.33C329.854 953.33 327.269 954.946 325.33 958.178C323.391 961.409 322.412 966.247 322.394 972.692C322.394 977.05 322.828 980.688 323.695 983.605C324.582 986.504 325.828 988.683 327.435 990.142C329.041 991.582 330.925 992.303 333.085 992.303ZM386.786 1002.25C382.022 1002.23 377.923 1001.06 374.488 998.729C371.072 996.402 368.441 993.032 366.594 988.619C364.766 984.205 363.861 978.896 363.88 972.692C363.88 966.506 364.794 961.234 366.622 956.876C368.468 952.518 371.1 949.203 374.516 946.932C377.951 944.642 382.041 943.497 386.786 943.497C391.532 943.497 395.613 944.642 399.029 946.932C402.464 949.222 405.105 952.545 406.951 956.903C408.798 961.243 409.712 966.506 409.693 972.692C409.693 978.915 408.77 984.233 406.924 988.646C405.095 993.06 402.473 996.43 399.057 998.756C395.641 1001.08 391.551 1002.25 386.786 1002.25ZM386.786 992.303C390.036 992.303 392.631 990.668 394.57 987.4C396.509 984.131 397.469 979.229 397.451 972.692C397.451 968.389 397.007 964.807 396.121 961.945C395.253 959.082 394.016 956.931 392.409 955.491C390.821 954.05 388.947 953.33 386.786 953.33C383.555 953.33 380.97 954.946 379.031 958.178C377.092 961.409 376.113 966.247 376.095 972.692C376.095 977.05 376.529 980.688 377.397 983.605C378.283 986.504 379.529 988.683 381.136 990.142C382.742 991.582 384.626 992.303 386.786 992.303ZM438.964 1001.78C435.049 1001.78 431.559 1001.06 428.494 999.615C425.447 998.175 423.028 996.19 421.237 993.66C419.446 991.13 418.513 988.231 418.439 984.962H430.073C430.202 987.16 431.125 988.942 432.843 990.308C434.56 991.675 436.601 992.358 438.964 992.358C440.848 992.358 442.51 991.942 443.95 991.112C445.409 990.262 446.544 989.089 447.357 987.594C448.188 986.08 448.603 984.344 448.603 982.386C448.603 980.392 448.179 978.638 447.329 977.124C446.498 975.609 445.344 974.428 443.867 973.578C442.39 972.729 440.7 972.295 438.798 972.276C437.136 972.276 435.52 972.618 433.951 973.301C432.4 973.984 431.19 974.917 430.322 976.099L419.658 974.188L422.345 944.273H457.024V954.078H432.233L430.765 968.288H431.098C432.095 966.884 433.6 965.721 435.613 964.798C437.625 963.874 439.878 963.413 442.371 963.413C445.787 963.413 448.834 964.216 451.512 965.822C454.189 967.429 456.304 969.636 457.855 972.442C459.406 975.231 460.172 978.444 460.154 982.082C460.172 985.904 459.286 989.302 457.495 992.275C455.722 995.229 453.238 997.556 450.044 999.255C446.868 1000.94 443.174 1001.78 438.964 1001.78ZM470.763 1001L494.279 954.466V954.078H466.885V944.273H506.688V954.217L483.144 1001H470.763Z" fill="#F50057"/>
</svg>
